<?xml version="1.0" encoding="utf-8"?>
<!-- Generator: Adobe Illustrator 15.0.0, SVG Export Plug-In . SVG Version: 6.00 Build 0)  -->
<!DOCTYPE svg PUBLIC "-//W3C//DTD SVG 1.1//EN" "http://www.w3.org/Graphics/SVG/1.1/DTD/svg11.dtd">
<svg version="1.1" id="Layer_1" xmlns="http://www.w3.org/2000/svg" xmlns:xlink="http://www.w3.org/1999/xlink" x="0px" y="0px"
	 width="219px" height="24px" viewBox="7.12 1.104 219 24" enable-background="new 7.12 1.104 219 24" xml:space="preserve">
<g>
	<path d="M19.235,24.444c-1.558,0-3.022-0.28-4.393-0.841c-1.371-0.561-2.561-1.345-3.567-2.353
		c-1.008-1.008-1.807-2.201-2.399-3.582c-0.592-1.381-0.888-2.882-0.888-4.502v-0.062c0-1.578,0.285-3.058,0.857-4.439
		c0.57-1.381,1.37-2.585,2.398-3.614s2.238-1.833,3.63-2.415c1.391-0.581,2.917-0.872,4.579-0.872c1.121,0,2.139,0.109,3.053,0.327
		c0.914,0.218,1.75,0.529,2.508,0.935c0.759,0.405,1.443,0.883,2.057,1.433c0.612,0.55,1.157,1.158,1.636,1.822l-4.549,3.521
		c-0.623-0.768-1.309-1.386-2.056-1.854c-0.748-0.467-1.651-0.701-2.711-0.701c-0.769,0-1.47,0.151-2.103,0.452
		C16.654,8,16.109,8.416,15.652,8.945c-0.457,0.529-0.815,1.147-1.075,1.854s-0.389,1.454-0.389,2.243v0.062
		c0,0.811,0.129,1.573,0.389,2.29c0.26,0.716,0.618,1.335,1.075,1.854c0.457,0.52,1.002,0.93,1.636,1.23
		c0.633,0.301,1.334,0.452,2.103,0.452c0.561,0,1.075-0.062,1.542-0.188c0.468-0.125,0.893-0.307,1.277-0.545
		s0.748-0.52,1.091-0.842c0.343-0.321,0.68-0.68,1.012-1.074l4.549,3.24c-0.52,0.706-1.085,1.36-1.697,1.963
		c-0.613,0.602-1.309,1.121-2.088,1.558c-0.778,0.437-1.646,0.778-2.601,1.028C21.519,24.319,20.439,24.444,19.235,24.444z"/>
	<path d="M33.035,2.2h10.312c1.683,0,3.104,0.208,4.268,0.623c1.163,0.416,2.108,0.987,2.835,1.713
		c1.288,1.288,1.932,2.98,1.932,5.078v0.062c0,1.682-0.404,3.079-1.215,4.19c-0.81,1.111-1.9,1.957-3.271,2.539l5.203,7.602h-6.947
		l-4.393-6.605h-2.68v6.605h-6.043V2.2z M43.098,12.668c1.018,0,1.812-0.234,2.383-0.701s0.856-1.095,0.856-1.885V10.02
		c0-0.873-0.296-1.527-0.888-1.963s-1.386-0.654-2.383-0.654h-3.988v5.265H43.098z"/>
	<path d="M64.531,2.044h5.825l9.284,21.964h-6.48l-1.558-3.926H63.16l-1.558,3.926h-6.324L64.531,2.044z M69.827,15.378L67.397,9.21
		l-2.461,6.168H69.827z"/>
	<path d="M83.317,2.2h17.446v5.296H89.361v3.707h10.312v5.016H89.361v7.789h-6.044V2.2z"/>
	<path d="M110.419,7.497h-6.511V2.2h19.098v5.296h-6.542v16.512h-6.045V7.497z"/>
	<path d="M127.211,2.2h6.387l5.203,8.442l5.203-8.442h6.385v21.808h-6.012V11.484l-5.576,8.536h-0.125l-5.545-8.505v12.493h-5.92
		V2.2z"/>
	<path d="M163.35,2.044h5.826l9.283,21.964h-6.48l-1.557-3.926h-8.443l-1.559,3.926h-6.324L163.35,2.044z M168.647,15.378
		l-2.432-6.168l-2.461,6.168H168.647z"/>
	<path d="M182.135,2.2h8.443c1.932,0,3.66,0.265,5.186,0.794c1.527,0.529,2.814,1.272,3.863,2.228c1.049,0.956,1.85,2.092,2.4,3.411
		c0.549,1.319,0.824,2.768,0.824,4.346v0.062c0,1.579-0.279,3.037-0.84,4.377c-0.562,1.34-1.371,2.498-2.43,3.475
		c-1.061,0.977-2.359,1.739-3.895,2.289c-1.537,0.551-3.283,0.826-5.234,0.826h-8.318V2.2z M188.18,7.527v11.122h2.461
		c1.826,0,3.291-0.478,4.393-1.433c1.1-0.955,1.65-2.315,1.65-4.081v-0.062c0-1.765-0.551-3.131-1.65-4.097
		c-1.102-0.966-2.566-1.449-4.393-1.449H188.18z"/>
	<path d="M207.557,2.2h17.539v5.109h-11.559v3.333h10.469v4.766h-10.469v3.459h11.715v5.141h-17.695V2.2z"/>
</g>
</svg>
